<?xml version="1.0" encoding="UTF-8" standalone="no"?>
<!-- Created with Inkscape (http://www.inkscape.org/) -->

<svg
   xmlns:dc="http://purl.org/dc/elements/1.1/"
   xmlns:cc="http://creativecommons.org/ns#"
   xmlns:rdf="http://www.w3.org/1999/02/22-rdf-syntax-ns#"
   xmlns:svg="http://www.w3.org/2000/svg"
   xmlns="http://www.w3.org/2000/svg"
   xmlns:sodipodi="http://sodipodi.sourceforge.net/DTD/sodipodi-0.dtd"
   xmlns:inkscape="http://www.inkscape.org/namespaces/inkscape"
   width="184.09985mm"
   height="150.70036mm"
   viewBox="0 0 184.09985 150.70036"
   version="1.1"
   id="svg2111"
   inkscape:version="0.92.2 (unknown)"
   sodipodi:docname="fence.svg">
  <defs
     id="defs2105" />
  <sodipodi:namedview
     id="base"
     pagecolor="#ffffff"
     bordercolor="#666666"
     borderopacity="1.0"
     inkscape:pageopacity="0.0"
     inkscape:pageshadow="2"
     inkscape:zoom="0.98994949"
     inkscape:cx="56.303358"
     inkscape:cy="316.41931"
     inkscape:document-units="mm"
     inkscape:current-layer="layer1"
     showgrid="false"
     inkscape:window-width="1920"
     inkscape:window-height="1176"
     inkscape:window-x="1920"
     inkscape:window-y="24"
     inkscape:window-maximized="1"
     fit-margin-top="2.1"
     fit-margin-left="2"
     fit-margin-right="2"
     fit-margin-bottom="2" />
  <metadata
     id="metadata2108">
    <rdf:RDF>
      <cc:Work
         rdf:about="">
        <dc:format>image/svg+xml</dc:format>
        <dc:type
           rdf:resource="http://purl.org/dc/dcmitype/StillImage" />
        <dc:title></dc:title>
      </cc:Work>
    </rdf:RDF>
  </metadata>
  <g
     inkscape:label="Layer 1"
     inkscape:groupmode="layer"
     id="layer1"
     transform="translate(40.599311,-81.852249)">
    <g
       id="g2691">
      <path
         inkscape:connector-curvature="0"
         id="rect1084"
         d="m -13.549286,157.30243 v 3.10007 H -38.54931 v 65.00017 h 25.000023 v 5.09994 h 9.999918 v -5.09994 h 20.000325 v 5.09994 h 9.9999 v -5.09994 h 19.999809 v 5.09994 h 9.999901 v -5.09994 H 76.4509 v 5.09994 h 9.99992 v -5.09994 h 19.9998 v 5.09994 h 10.00043 v -5.09994 h 24.9995 V 160.4025 h -25.00003 v -3.10007 h -9.9999 v 3.10007 h -19.9998 v -3.10007 H 76.450389 v 3.10007 H 56.450567 v -3.10007 h -9.999901 v 3.10007 h -20.00033 v -3.10007 h -9.999909 v 3.10007 H -3.549369 v -3.10007 z"
         style="opacity:0.97000002;fill:none;fill-opacity:1;stroke:#ff0000;stroke-width:0.1;stroke-miterlimit:4;stroke-dasharray:none;stroke-opacity:1" />
      <path
         style="opacity:0.97000002;fill:none;fill-opacity:1;stroke:#ff0000;stroke-width:0.1;stroke-miterlimit:4;stroke-dasharray:none;stroke-opacity:1"
         d="m -13.549287,84.002249 v 3.10007 h -25.000024 v 65.000171 h 25.000024 v 5.09994 h 9.9999171 v -5.09994 H 16.450956 v 5.09994 h 9.9999 v -5.09994 h 19.999809 v 5.09994 h 9.999901 v -5.09994 h 20.000333 v 5.09994 h 9.99992 v -5.09994 h 19.999801 v 5.09994 h 10.00043 v -5.09994 h 24.9995 V 87.102319 h -25.00003 v -3.10007 h -9.9999 v 3.10007 H 86.450819 v -3.10007 h -10.00043 v 3.10007 H 56.450566 v -3.10007 h -9.999901 v 3.10007 h -20.00033 v -3.10007 h -9.999909 v 3.10007 H -3.5493699 v -3.10007 z"
         id="path2687"
         inkscape:connector-curvature="0" />
    </g>
  </g>
</svg>
