<?xml version="1.0" encoding="UTF-8" standalone="no"?>
<svg
   xmlns:dc="http://purl.org/dc/elements/1.1/"
   xmlns:cc="http://creativecommons.org/ns#"
   xmlns:rdf="http://www.w3.org/1999/02/22-rdf-syntax-ns#"
   xmlns:svg="http://www.w3.org/2000/svg"
   xmlns="http://www.w3.org/2000/svg"
   xmlns:sodipodi="http://sodipodi.sourceforge.net/DTD/sodipodi-0.dtd"
   xmlns:inkscape="http://www.inkscape.org/namespaces/inkscape"
   id="svg6463"
   version="1.1"
   viewBox="0 0 480.10001 240.10001"
   height="240.10001mm"
   width="480.10001mm"
   sodipodi:docname="first_floor_new.svg"
   inkscape:version="0.92.2 (unknown)">
  <sodipodi:namedview
     pagecolor="#ffffff"
     bordercolor="#666666"
     borderopacity="1"
     objecttolerance="10"
     gridtolerance="10"
     guidetolerance="10"
     inkscape:pageopacity="0"
     inkscape:pageshadow="2"
     inkscape:window-width="1920"
     inkscape:window-height="1176"
     id="namedview71"
     showgrid="false"
     inkscape:document-units="mm"
     inkscape:zoom="0.91342602"
     inkscape:cx="585.63623"
     inkscape:cy="453.73229"
     inkscape:window-x="0"
     inkscape:window-y="24"
     inkscape:window-maximized="1"
     inkscape:current-layer="svg6463" />
  <defs
     id="defs6457" />
  <metadata
     id="metadata6460">
    <rdf:RDF>
      <cc:Work
         rdf:about="">
        <dc:format>image/svg+xml</dc:format>
        <dc:type
           rdf:resource="http://purl.org/dc/dcmitype/StillImage" />
        <dc:title></dc:title>
      </cc:Work>
    </rdf:RDF>
  </metadata>
  <path
     id="path8069"
     style="opacity:1;fill:none;fill-opacity:1;stroke:#ff0000;stroke-width:0.1;stroke-miterlimit:4;stroke-dasharray:none;stroke-opacity:1"
     d="m 334.42842,186.51326 a 2.5000157,2.5000157 0 0 1 -2.50001,2.50002 2.5000157,2.5000157 0 0 1 -2.50002,-2.50002 2.5000157,2.5000157 0 0 1 2.50002,-2.50002 2.5000157,2.5000157 0 0 1 2.50001,2.50002 z M 312.17771,80.050003 h 5.99999 c 1.108,0 2,0.892001 2,2.000001 V 158.05 c 0,1.108 -0.892,2 -2,2 h -5.99999 c -1.10801,0 -2.00001,-0.892 -2.00001,-2 V 82.050004 c 0,-1.108 0.892,-2.000001 2.00001,-2.000001 z M 82.049997,79.924408 h 5.999997 c 1.108001,0 2.000001,0.892 2.000001,2.000001 v 76.000001 c 0,1.108 -0.892,2 -2.000001,2 h -5.999997 c -1.108001,0 -2.000002,-0.892 -2.000002,-2 V 81.924409 c 0,-1.108001 0.892001,-2.000001 2.000002,-2.000001 z m -49.999995,0 H 33.05 c 1.108001,0 2.000001,0.892 2.000001,2.000001 v 76.000001 c 0,1.108 -0.892,2 -2.000001,2 h -0.999998 c -1.108,0 -2.000001,-0.892 -2.000001,-2 V 81.924409 c 0,-1.108001 0.892001,-2.000001 2.000001,-2.000001 z M 0.049996,180.05001 a 60.000008,60.000004 0 0 0 60.000008,60 M 0.049996,60.049997 A 60.000008,60.000004 0 0 1 60.050004,0.049996 M 305.05,0.05003 A 174.99998,119.99998 0 0 1 480.04998,120.05001 174.99998,119.99998 0 0 1 305.05,240.04998 M 325.05003,220.05 a 2.5000122,2.5000122 0 0 1 -2.50001,2.50002 2.5000122,2.5000122 0 0 1 -2.50001,-2.50002 2.5000122,2.5000122 0 0 1 2.50001,-2.50001 2.5000122,2.5000122 0 0 1 2.50001,2.50001 z m -200.00001,0 A 2.5000122,2.5000122 0 0 1 122.55,222.55002 2.5000122,2.5000122 0 0 1 120.04999,220.05 2.5000122,2.5000122 0 0 1 122.55,217.54999 2.5000122,2.5000122 0 0 1 125.05002,220.05 Z M 325.05003,20.050007 a 2.5000122,2.5000122 0 0 1 -2.50001,2.500012 2.5000122,2.5000122 0 0 1 -2.50001,-2.500012 2.5000122,2.5000122 0 0 1 2.50001,-2.500012 2.5000122,2.5000122 0 0 1 2.50001,2.500012 z m -200.00001,0 a 2.5000122,2.5000122 0 0 1 -2.50002,2.500012 2.5000122,2.5000122 0 0 1 -2.50001,-2.500012 2.5000122,2.5000122 0 0 1 2.50001,-2.500012 2.5000122,2.5000122 0 0 1 2.50002,2.500012 z M 137.05,219.99883 h 146 c 1.108,0 2,0.892 2,2 v 5.99999 c 0,1.108 -0.892,2.00001 -2,2.00001 h -146 c -1.108,0 -2,-0.89201 -2,-2.00001 v -5.99999 c 0,-1.108 0.892,-2 2,-2 z m 0,-210.0000049 h 146 c 1.108,0 2,0.8920009 2,2.0000009 v 5.999998 c 0,1.108001 -0.892,2.000001 -2,2.000001 h -146 c -1.108,0 -2,-0.892 -2,-2.000001 v -5.999998 c 0,-1.108 0.892,-2.0000009 2,-2.0000009 z M 400.04999,212.55021 a 2.5002081,2.5002081 0 0 1 -2.50021,-2.50021 2.5002081,2.5002081 0 0 1 2.50021,-2.50021 2.5002081,2.5002081 0 0 1 2.50021,2.50021 2.5002081,2.5002081 0 0 1 -2.50021,2.50021 z m -50,0 a 2.5002081,2.5002081 0 0 1 -2.50021,-2.50021 2.5002081,2.5002081 0 0 1 2.50021,-2.50021 2.5002081,2.5002081 0 0 1 2.50021,2.50021 2.5002081,2.5002081 0 0 1 -2.50021,2.50021 z m 50,-40 a 2.5002081,2.5002081 0 0 1 -2.50021,-2.50021 2.5002081,2.5002081 0 0 1 2.50021,-2.50021 2.5002081,2.5002081 0 0 1 2.50021,2.50021 2.5002081,2.5002081 0 0 1 -2.50021,2.50021 z m -50,0 a 2.5002081,2.5002081 0 0 1 -2.50021,-2.50021 2.5002081,2.5002081 0 0 1 2.50021,-2.50021 2.5002081,2.5002081 0 0 1 2.50021,2.50021 2.5002081,2.5002081 0 0 1 -2.50021,2.50021 z m 50,-99.999999 a 2.5002081,2.5002081 0 0 1 -2.50021,-2.500208 2.5002081,2.5002081 0 0 1 2.50021,-2.500208 2.5002081,2.5002081 0 0 1 2.50021,2.500208 2.5002081,2.5002081 0 0 1 -2.50021,2.500208 z m -50,0 a 2.5002081,2.5002081 0 0 1 -2.50021,-2.500208 2.5002081,2.5002081 0 0 1 2.50021,-2.500208 2.5002081,2.5002081 0 0 1 2.50021,2.500208 2.5002081,2.5002081 0 0 1 -2.50021,2.500208 z m 50,-40.000004 a 2.5002081,2.5002081 0 0 1 -2.50021,-2.500208 2.5002081,2.5002081 0 0 1 2.50021,-2.500208 2.5002081,2.5002081 0 0 1 2.50021,2.500208 2.5002081,2.5002081 0 0 1 -2.50021,2.500208 z m -50,0 a 2.5002081,2.5002081 0 0 1 -2.50021,-2.500208 2.5002081,2.5002081 0 0 1 2.50021,-2.500208 2.5002081,2.5002081 0 0 1 2.50021,2.500208 2.5002081,2.5002081 0 0 1 -2.50021,2.500208 z m 99.99988,29.999796 a 1.499887,1.499887 0 0 1 -1.49988,1.499887 1.499887,1.499887 0 0 1 -1.49989,-1.499887 1.499887,1.499887 0 0 1 1.49989,-1.499887 1.499887,1.499887 0 0 1 1.49988,1.499887 z m 0,114.999997 a 1.499887,1.499887 0 0 1 -1.49988,1.49989 1.499887,1.499887 0 0 1 -1.49989,-1.49989 1.499887,1.499887 0 0 1 1.49989,-1.49988 1.499887,1.499887 0 0 1 1.49988,1.49988 z M 92.549867,62.550003 a 1.499887,1.499887 0 0 1 -1.499887,1.499887 1.499887,1.499887 0 0 1 -1.499887,-1.499887 1.499887,1.499887 0 0 1 1.499887,-1.499887 1.499887,1.499887 0 0 1 1.499887,1.499887 z m 0,114.999997 A 1.499887,1.499887 0 0 1 91.04998,179.04989 1.499887,1.499887 0 0 1 89.550093,177.55 1.499887,1.499887 0 0 1 91.04998,176.05012 1.499887,1.499887 0 0 1 92.549867,177.55 Z M 433.04987,104.05001 a 1.499887,1.499887 0 0 1 -1.49988,1.49989 1.499887,1.499887 0 0 1 -1.49989,-1.49989 1.499887,1.499887 0 0 1 1.49989,-1.49989 1.499887,1.499887 0 0 1 1.49988,1.49989 z m 0,31.99999 a 1.499887,1.499887 0 0 1 -1.49988,1.49989 1.499887,1.499887 0 0 1 -1.49989,-1.49989 1.499887,1.499887 0 0 1 1.49989,-1.49988 1.499887,1.499887 0 0 1 1.49988,1.49988 z m -323.5,-31.99999 a 1.499887,1.499887 0 0 1 -1.49989,1.49989 1.499887,1.499887 0 0 1 -1.49989,-1.49989 1.499887,1.499887 0 0 1 1.49989,-1.49989 1.499887,1.499887 0 0 1 1.49989,1.49989 z m 0,31.99999 a 1.499887,1.499887 0 0 1 -1.49989,1.49989 1.499887,1.499887 0 0 1 -1.49989,-1.49989 1.499887,1.499887 0 0 1 1.49989,-1.49988 1.499887,1.499887 0 0 1 1.49989,1.49988 z M 2.0500045,0.0500034 H 478.05 c 1.108,0 2,0.89200053 2,2.0000012 V 238.05 c 0,1.108 -0.892,2 -2,2 H 2.0500045 c -1.1080007,0 -2.00000123,-0.892 -2.00000123,-2 V 2.0500046 c 0,-1.10800067 0.89200053,-2.0000012 2.00000123,-2.0000012 z M 252.55002,160.05 a 2.5000148,2.5000148 0 0 1 -2.50002,2.50002 2.5000148,2.5000148 0 0 1 -2.50001,-2.50002 2.5000148,2.5000148 0 0 1 2.50001,-2.50001 2.5000148,2.5000148 0 0 1 2.50002,2.50001 z m -79.99999,0 a 2.5000148,2.5000148 0 0 1 -2.50001,2.50002 2.5000148,2.5000148 0 0 1 -2.50002,-2.50002 2.5000148,2.5000148 0 0 1 2.50002,-2.50001 2.5000148,2.5000148 0 0 1 2.50001,2.50001 z m 79.99999,-79.999997 a 2.5000148,2.5000148 0 0 1 -2.50002,2.500015 2.5000148,2.5000148 0 0 1 -2.50001,-2.500015 2.5000148,2.5000148 0 0 1 2.50001,-2.500015 2.5000148,2.5000148 0 0 1 2.50002,2.500015 z m -79.99999,0 a 2.5000148,2.5000148 0 0 1 -2.50001,2.500015 2.5000148,2.5000148 0 0 1 -2.50002,-2.500015 2.5000148,2.5000148 0 0 1 2.50002,-2.500015 2.5000148,2.5000148 0 0 1 2.50001,2.500015 z" />
</svg>
